<?xml version="1.0" encoding="UTF-8" standalone="no"?>
<svg
   version="1.1"
   id="Calque_1"
   x="0px"
   y="0px"
   viewBox="0 0 400.00001 200"
   xml:space="preserve"
   sodipodi:docname="muzoo.svg"
   width="400"
   height="200"
   inkscape:version="1.3.2 (091e20ef0f, 2023-11-25, custom)"
   xmlns:inkscape="http://www.inkscape.org/namespaces/inkscape"
   xmlns:sodipodi="http://sodipodi.sourceforge.net/DTD/sodipodi-0.dtd"
   xmlns="http://www.w3.org/2000/svg"
   xmlns:svg="http://www.w3.org/2000/svg"><defs
   id="defs22" /><sodipodi:namedview
   id="namedview22"
   pagecolor="#ffffff"
   bordercolor="#000000"
   borderopacity="0.25"
   inkscape:showpageshadow="2"
   inkscape:pageopacity="0.0"
   inkscape:pagecheckerboard="0"
   inkscape:deskcolor="#d1d1d1"
   inkscape:zoom="1.4105917"
   inkscape:cx="187.50996"
   inkscape:cy="113.42758"
   inkscape:window-width="1920"
   inkscape:window-height="1011"
   inkscape:window-x="0"
   inkscape:window-y="0"
   inkscape:window-maximized="1"
   inkscape:current-layer="Calque_1" /> <g
   id="g22"
   transform="matrix(0.51413882,0,0,0.51413882,42.724935,49.07455)"> <g
   id="g6"> <g
   id="g4"> <g
   id="g3"> <path
   d="m 143.5,126 h -34 V 52.9 L 88.1,126 H 62.2 L 39.4,52.9 V 126 H 5.4 V 8.2 H 50 l 25,76 25,-76 h 43.4 V 126 Z"
   id="path1" /> <path
   d="m 161.2,8.2 h 35 v 76.6 c 0,8.1 6.1,14.8 14.1,14.8 8.4,0 14.3,-6.7 14.3,-14.8 V 8.2 h 35 v 76.9 c 0,25.6 -18.5,44.1 -49.3,44.1 -30.5,0 -49.1,-18.5 -49.1,-44.1 z"
   id="path2" /> <path
   d="m 274.7,8.2 h 102.8 l -54.2,89.2 h 51 V 126 H 268.6 L 323,36.8 h -48.3 z"
   id="path3" /> </g> </g> <path
   d="m 377.5,63.9 c 0,-32.5 23.4,-62.1 63.8,-62.1 40.6,0 64,29.6 64,62.1 0,32.5 -23.4,62.1 -64,62.1 -40.4,0 -63.8,-29.6 -63.8,-62.1 z m 92.3,0 c 0,-15.7 -10.4,-30.1 -28.4,-30.1 -17.8,0 -28.4,14.5 -28.4,30.1 0,15.6 10.5,30.1 28.3,30.1 18,0 28.5,-14.5 28.5,-30.1 z"
   id="path4" /> <path
   d="m 478.6,63.9 c 0,-32.5 23.4,-62.1 63.8,-62.1 40.6,0 64,29.6 64,62.1 0,32.5 -23.4,62.1 -64,62.1 -40.4,0 -63.8,-29.6 -63.8,-62.1 z m 92.3,0 c 0,-15.7 -10.4,-30.1 -28.4,-30.1 -17.8,0 -28.4,14.5 -28.4,30.1 0,15.6 10.5,30.1 28.3,30.1 18,0 28.5,-14.5 28.5,-30.1 z"
   id="path5" /> <circle
   cx="441.39999"
   cy="63.900002"
   r="14.3"
   id="circle5" /> <circle
   cx="542.5"
   cy="63.900002"
   r="14.3"
   id="circle6" /> </g> <g
   id="g21"> <path
   d="m 27.8,185 v 10.2 H 5.4 v -40 H 17.3 V 185 Z"
   id="path6" /> <path
   d="m 58.5,195.2 -1.4,-4.6 H 43.7 l -1.4,4.6 H 29.4 l 14.8,-40 h 12.5 l 15.1,40 z m -8.1,-28 -4.2,14.8 h 8.5 z"
   id="path7" /> <path
   d="m 129.9,179.4 c -1.3,9.2 -8.7,16.9 -21,16.9 -13.8,0 -21.9,-10 -21.9,-21.1 0,-11.1 8.1,-21.1 21.6,-21.1 12.9,0 20.2,7.9 21.3,17.6 h -12.5 c -0.7,-3.8 -3.5,-6.7 -8.5,-6.7 -6.4,0 -9.7,4.9 -9.7,10.3 0,5.8 3.7,10.3 9.9,10.3 4.4,0 7.5,-2.7 8.2,-6.1 h 12.6 z"
   id="path8" /> <path
   d="m 157.8,180.2 h -11.2 v 14.9 h -11.9 v -40 h 11.9 v 15.2 h 11.2 v -15.2 h 12 v 40 h -12 z"
   id="path9" /> <path
   d="m 202.5,195.2 -1.4,-4.6 h -13.4 l -1.4,4.6 h -12.9 l 14.8,-40 h 12.5 l 15.1,40 z m -8.1,-28 -4.2,14.8 h 8.5 z"
   id="path10" /> <path
   d="m 217,155.1 h 11.9 v 26 c 0,2.7 2.1,5 4.8,5 2.9,0 4.9,-2.3 4.9,-5 v -26 h 11.9 v 26.1 c 0,8.7 -6.3,15 -16.8,15 -10.4,0 -16.7,-6.3 -16.7,-15 z"
   id="path11" /> <path
   d="m 277.5,155.1 h 13 l -11.9,20 11.9,20 h -13 l -5.8,-11.4 -5.8,11.4 h -13 l 11.9,-20 -11.9,-20 h 13 l 5.8,11.4 z"
   id="path12" /> <path
   d="m 308,181.7 h -15.6 v -8.5 H 308 Z"
   id="path13" /> <path
   d="m 329.7,155.1 c 13.3,0 20.9,9.6 20.9,20 0,10.4 -7.5,20 -20.9,20 h -16.4 v -40 z m -4.5,10.1 v 19.9 h 3.6 c 6,0 9.6,-4.8 9.6,-10 0,-5.1 -3.6,-9.9 -9.6,-9.9 z"
   id="path14" /> <path
   d="m 367.5,164.1 v 7 h 13.9 v 8.5 h -13.9 v 6.7 h 13.9 v 8.9 h -25.8 v -40 h 25.8 v 8.9 z"
   id="path15" /> <path
   d="m 402,181.7 h -15.6 v -8.5 H 402 Z"
   id="path16" /> <path
   d="m 419.2,164.9 v 8.9 h 13.9 v 9.4 h -13.9 v 12.1 h -11.9 v -40 h 25.8 v 9.7 h -13.9 z"
   id="path17" /> <path
   d="m 437.4,175.2 c 0,-11 7.9,-21.1 21.7,-21.1 13.8,0 21.7,10.1 21.7,21.1 0,11 -7.9,21.1 -21.7,21.1 -13.7,0 -21.7,-10.1 -21.7,-21.1 z m 31.3,0 c 0,-5.3 -3.5,-10.2 -9.7,-10.2 -6.1,0 -9.7,4.9 -9.7,10.2 0,5.3 3.6,10.2 9.7,10.2 6.2,0 9.7,-4.9 9.7,-10.2 z"
   id="path18" /> <path
   d="m 510.9,178.9 v -23.7 h 12 v 40 h -12.1 l -13.1,-22.9 v 22.9 h -11.9 v -40 h 12.1 z"
   id="path19" /> <path
   d="m 546.2,155.1 c 13.3,0 20.9,9.6 20.9,20 0,10.4 -7.5,20 -20.9,20 h -16.4 v -40 z m -4.4,10.1 v 19.9 h 3.6 c 6,0 9.6,-4.8 9.6,-10 0,-5.1 -3.6,-9.9 -9.6,-9.9 z"
   id="path20" /> <path
   d="m 582.5,181.7 c 0,3.6 2,5.7 5,5.7 2.4,0 3.9,-1.3 3.9,-3.4 0,-2.2 -1.8,-3.1 -6.1,-4.8 -7.4,-2.9 -14,-5.3 -14,-13.4 0,-8.2 7.8,-11.6 15.8,-11.6 11.7,0 15.6,6.7 15.6,13 H 591 c 0,-3.3 -1.3,-5 -3.9,-5 -1.9,0 -3.7,1 -3.7,3.1 0,2.1 1.8,3.3 5.5,4.6 6.9,2.5 14.5,5 14.5,13.3 0,8.3 -6.2,13.1 -16.4,13.1 -10,0 -16.5,-5.2 -16.5,-14.6 z"
   id="path21" /> </g> </g> </svg>
