<?xml version="1.0" encoding="UTF-8"?> <svg xmlns="http://www.w3.org/2000/svg" xmlns:xlink="http://www.w3.org/1999/xlink" version="1.1" id="Calque_1" x="0px" y="0px" viewBox="0 0 611.8 198" style="enable-background:new 0 0 611.8 198;" xml:space="preserve"> <g> <g> <g> <g> <path d="M143.5,126h-34V52.9L88.1,126H62.2L39.4,52.9V126h-34V8.2H50L75,84.2L100,8.2h43.4V126z"></path> <path d="M161.2,8.2h35v76.6c0,8.1,6.1,14.8,14.1,14.8c8.4,0,14.3-6.7,14.3-14.8V8.2h35v76.9c0,25.6-18.5,44.1-49.3,44.1 c-30.5,0-49.1-18.5-49.1-44.1V8.2z"></path> <path d="M274.7,8.2h102.8l-54.2,89.2h51V126H268.6L323,36.8h-48.3V8.2z"></path> </g> </g> <path d="M377.5,63.9c0-32.5,23.4-62.1,63.8-62.1c40.6,0,64,29.6,64,62.1c0,32.5-23.4,62.1-64,62.1 C400.9,126,377.5,96.4,377.5,63.9z M469.8,63.9c0-15.7-10.4-30.1-28.4-30.1c-17.8,0-28.4,14.5-28.4,30.1S423.5,94,441.3,94 C459.3,94,469.8,79.5,469.8,63.9z"></path> <path d="M478.6,63.9c0-32.5,23.4-62.1,63.8-62.1c40.6,0,64,29.6,64,62.1c0,32.5-23.4,62.1-64,62.1C502,126,478.6,96.4,478.6,63.9z M570.9,63.9c0-15.7-10.4-30.1-28.4-30.1c-17.8,0-28.4,14.5-28.4,30.1S524.6,94,542.4,94C560.4,94,570.9,79.5,570.9,63.9z"></path> <circle cx="441.4" cy="63.9" r="14.3"></circle> <circle cx="542.5" cy="63.9" r="14.3"></circle> </g> <g> <path d="M27.8,185v10.2H5.4v-40h11.9V185H27.8z"></path> <path d="M58.5,195.2l-1.4-4.6H43.7l-1.4,4.6H29.4l14.8-40h12.5l15.1,40H58.5z M50.4,167.2l-4.2,14.8h8.5L50.4,167.2z"></path> <path d="M129.9,179.4c-1.3,9.2-8.7,16.9-21,16.9c-13.8,0-21.9-10-21.9-21.1c0-11.1,8.1-21.1,21.6-21.1c12.9,0,20.2,7.9,21.3,17.6 h-12.5c-0.7-3.8-3.5-6.7-8.5-6.7c-6.4,0-9.7,4.9-9.7,10.3c0,5.8,3.7,10.3,9.9,10.3c4.4,0,7.5-2.7,8.2-6.1H129.9z"></path> <path d="M157.8,180.2h-11.2v14.9h-11.9v-40h11.9v15.2h11.2v-15.2h12v40h-12V180.2z"></path> <path d="M202.5,195.2l-1.4-4.6h-13.4l-1.4,4.6h-12.9l14.8-40h12.5l15.1,40H202.5z M194.4,167.2l-4.2,14.8h8.5L194.4,167.2z"></path> <path d="M217,155.1h11.9v26c0,2.7,2.1,5,4.8,5c2.9,0,4.9-2.3,4.9-5v-26h11.9v26.1c0,8.7-6.3,15-16.8,15c-10.4,0-16.7-6.3-16.7-15 V155.1z"></path> <path d="M277.5,155.1h13l-11.9,20l11.9,20h-13l-5.8-11.4l-5.8,11.4h-13l11.9-20l-11.9-20h13l5.8,11.4L277.5,155.1z"></path> <path d="M308,181.7h-15.6v-8.5H308V181.7z"></path> <path d="M329.7,155.1c13.3,0,20.9,9.6,20.9,20c0,10.4-7.5,20-20.9,20h-16.4v-40H329.7z M325.2,165.2v19.9h3.6c6,0,9.6-4.8,9.6-10 c0-5.1-3.6-9.9-9.6-9.9H325.2z"></path> <path d="M367.5,164.1v7h13.9v8.5h-13.9v6.7h13.9v8.9h-25.8v-40h25.8v8.9H367.5z"></path> <path d="M402,181.7h-15.6v-8.5H402V181.7z"></path> <path d="M419.2,164.9v8.9h13.9v9.4h-13.9v12.1h-11.9v-40h25.8v9.7H419.2z"></path> <path d="M437.4,175.2c0-11,7.9-21.1,21.7-21.1c13.8,0,21.7,10.1,21.7,21.1c0,11-7.9,21.1-21.7,21.1 C445.4,196.3,437.4,186.2,437.4,175.2z M468.7,175.2c0-5.3-3.5-10.2-9.7-10.2c-6.1,0-9.7,4.9-9.7,10.2c0,5.3,3.6,10.2,9.7,10.2 C465.2,185.4,468.7,180.5,468.7,175.2z"></path> <path d="M510.9,178.9v-23.7h12v40h-12.1l-13.1-22.9v22.9h-11.9v-40h12.1L510.9,178.9z"></path> <path d="M546.2,155.1c13.3,0,20.9,9.6,20.9,20c0,10.4-7.5,20-20.9,20h-16.4v-40H546.2z M541.8,165.2v19.9h3.6c6,0,9.6-4.8,9.6-10 c0-5.1-3.6-9.9-9.6-9.9H541.8z"></path> <path d="M582.5,181.7c0,3.6,2,5.7,5,5.7c2.4,0,3.9-1.3,3.9-3.4c0-2.2-1.8-3.1-6.1-4.8c-7.4-2.9-14-5.3-14-13.4 c0-8.2,7.8-11.6,15.8-11.6c11.7,0,15.6,6.7,15.6,13H591c0-3.3-1.3-5-3.9-5c-1.9,0-3.7,1-3.7,3.1c0,2.1,1.8,3.3,5.5,4.6 c6.9,2.5,14.5,5,14.5,13.3c0,8.3-6.2,13.1-16.4,13.1c-10,0-16.5-5.2-16.5-14.6H582.5z"></path> </g> </g> </svg> 